<?xml version="1.0" encoding="UTF-8" standalone="no"?>
<svg
   width="139"
   height="20"
   version="1.1"
   id="svg51"
   sodipodi:docname="logo.svg"
   inkscape:version="1.1 (c68e22c387, 2021-05-23)"
   xmlns:inkscape="http://www.inkscape.org/namespaces/inkscape"
   xmlns:sodipodi="http://sodipodi.sourceforge.net/DTD/sodipodi-0.dtd"
   xmlns="http://www.w3.org/2000/svg"
   xmlns:svg="http://www.w3.org/2000/svg">
  <sodipodi:namedview
     id="namedview53"
     pagecolor="#ffffff"
     bordercolor="#666666"
     borderopacity="1.0"
     inkscape:pageshadow="2"
     inkscape:pageopacity="0.0"
     inkscape:pagecheckerboard="0"
     showgrid="false"
     inkscape:zoom="4.147482"
     inkscape:cx="72.212489"
     inkscape:cy="14.828274"
     inkscape:window-width="1366"
     inkscape:window-height="715"
     inkscape:window-x="-8"
     inkscape:window-y="-8"
     inkscape:window-maximized="1"
     inkscape:current-layer="svg51"
     inkscape:object-nodes="false"
     inkscape:snap-intersection-paths="true"
     inkscape:object-paths="true"
     inkscape:snap-nodes="false">
    <inkscape:grid
       type="xygrid"
       id="grid330" />
  </sodipodi:namedview>
  <defs
     id="defs37">
    <linearGradient
       id="a"
       x1="72.195%"
       x2="17.503%"
       y1="0%"
       y2="100%">
      <stop
         offset="0%"
         stop-color="#33D35E"
         id="stop32" />
      <stop
         offset="100%"
         stop-color="#2AB6D9"
         id="stop34" />
    </linearGradient>
  </defs>
  <text
     xml:space="preserve"
     style="font-style:normal;font-weight:normal;font-size:20.3328px;line-height:1.25;font-family:sans-serif;fill:#000000;fill-opacity:1;stroke:none;stroke-width:1.08926"
     x="32.105431"
     y="15.119714"
     id="text3579"
     transform="scale(1.0303835,0.97051244)"><tspan
       sodipodi:role="line"
       id="tspan3577"
       x="32.105431"
       y="15.119714"
       style="font-size:20.3328px;stroke-width:1.08926"><tspan
   style="font-style:normal;font-variant:normal;font-weight:normal;font-stretch:normal;font-family:'Matura MT Script Capitals';-inkscape-font-specification:'Matura MT Script Capitals';stroke-width:1.08926"
   id="tspan11231">M</tspan>-<tspan
   style="font-style:normal;font-variant:normal;font-weight:normal;font-stretch:normal;font-family:Magneto;-inkscape-font-specification:Magneto;stroke-width:1.08926"
   id="tspan16163">vlog</tspan></tspan></text>
  <path
     style="fill:#2261e1;fill-opacity:0.47983873;stroke-width:0.33;stroke-linejoin:round"
     id="path17798"
     d="m 20.029526,6.5342447 c 2.248244,-0.28455 4.521521,-0.2042693 6.782151,-0.2069057 2.573234,0.00901 5.14532,8.635e-4 7.718236,-0.035241 2.875143,0.070788 5.747273,0.00933 8.621416,-0.069398 0.599763,-4.419e-4 1.199582,0.00689 1.799288,-0.00133 2.562986,-0.03511 5.124859,-0.1520257 7.687525,-0.2036196 3.052963,-0.061465 3.233782,-0.045176 6.259657,-0.041089 4.29786,0.019574 8.592509,0.2061708 12.889433,0.2738198 0.581535,0.00294 1.16307,0.00584 1.744605,0.00881 1.878325,0.00961 2.217343,-0.015739 4.180416,0.1185465 2.264056,0.1548749 4.517921,0.4348154 6.768332,0.719135 4.022648,0.7258796 8.108885,0.864261 12.167993,1.2598437 3.293046,0.4198637 6.613352,0.4354192 9.925682,0.5338834 3.00778,0.1193555 6.01727,0.011306 9.02602,0.032771 2.30529,0.023794 4.61071,0.057413 6.91509,0.1265995 1.00799,-0.039592 2.01729,0.060804 3.02502,0.034183 0.84303,-0.02227 1.6844,-0.087272 2.5265,-0.1326909 2.40225,-0.084434 1.20531,-0.060455 3.5908,-0.072758 0,0 5.19353,-3.7733183 5.19353,-3.7733183 v 0 c -2.30189,-0.012058 -1.17175,0.013569 -3.39051,-0.072769 -0.72041,-0.045613 -1.43992,-0.1121414 -2.16147,-0.1325991 -1.03974,-0.029479 -2.08146,0.075623 -3.12149,0.035554 -2.42546,0.06952 -4.85177,0.1090615 -7.27806,0.1370432 -3.00947,0.024777 -6.01838,-0.067434 -9.0279,-0.018562 -3.37663,-0.00425 -6.7494,-0.1571643 -10.12056,-0.342293 C 97.654652,4.4479497 93.564969,4.0681805 89.492875,3.5455252 82.176252,2.7223462 92.50999,3.8744526 84.997634,3.0723786 83.527601,2.9154272 82.066831,2.6710929 80.593572,2.5480587 80.186382,2.5140537 77.50997,2.4427452 77.046396,2.4294793 c -4.548137,0.06863 -9.094227,0.2503984 -13.643194,0.2738198 -2.928723,0.00394 -3.231249,0.021049 -6.14655,-0.041089 -2.375854,-0.050639 -4.750805,-0.1697929 -7.127008,-0.2036197 -0.598486,-0.00852 -1.197092,-8.837e-4 -1.795639,-0.00133 -2.810497,-0.083261 -5.618703,-0.1385629 -8.430381,-0.069398 -2.540572,-0.037084 -5.080309,-0.043656 -7.621224,-0.035241 -2.068363,-0.00242 -4.162297,0.1082437 -6.212589,-0.2069058 0,0 -6.040285,4.3885241 -6.040285,4.3885241 z" />
  <path
     style="fill:#568000;fill-opacity:0.36290324;stroke-width:0.33;stroke-linejoin:round"
     id="path17833"
     d="m 11.180728,12.644998 c 0.122054,-0.06641 0.235582,-0.151737 0.366162,-0.199245 0.236216,-0.08594 0.904822,-0.192314 1.13042,-0.225296 1.016984,-0.14868 2.037455,-0.210495 3.062436,-0.275872 2.404644,-0.210938 4.817424,-0.294051 7.226856,-0.429386 2.752433,-0.103413 5.506405,-0.14058 8.259479,-0.229943 4.378077,-0.133012 8.759544,-0.11646 13.13875,-0.04206 4.076988,-0.0053 8.153688,0.01474 12.230557,-0.0218 5.381025,-0.127169 10.763554,-0.146394 16.145701,-0.104672 3.51017,-0.162795 7.021153,0.07466 10.530476,0.068 3.56961,-0.07335 1.796119,-0.05497 5.320459,-0.05653 4.287672,-0.05855 8.57265,0.130536 12.860176,0.158817 2.61326,-0.02267 5.22781,0.113185 7.84098,0.05112 0.70416,-0.01673 1.40745,-0.05966 2.11117,-0.0895 3.14445,-0.100946 6.29038,0.02533 9.43007,0.195358 0.8965,0.06759 1.79674,0.05373 2.69512,0.05489 0,0 5.76864,-4.1911663 5.76864,-4.1911663 v 0 c -0.94881,0.00122 -1.89898,-0.00933 -2.84621,0.054889 -3.3195,0.1564475 -6.64442,0.2952388 -9.96785,0.1953583 -0.6216,-0.029833 -1.24268,-0.073687 -1.8648,-0.089498 -2.65984,-0.067598 -5.32171,0.07897 -7.98168,0.051115 -4.43318,0.028721 -8.864116,0.2137675 -13.297377,0.1588214 -0.874266,-3.867e-4 -1.748532,-7.735e-4 -2.622798,-0.00116 -0.847351,-0.018455 -1.694503,-0.053748 -2.542054,-0.055364 -3.571825,-0.00681 -7.145144,0.2269231 -10.7177,0.068028 -5.286015,0.040137 -10.572537,0.027398 -15.85734,-0.104808 -4.05543,-0.037552 -8.110713,-0.016675 -12.166269,-0.024718 -4.339819,0.068065 -8.681963,0.089741 -13.0205,-0.045157 -2.63803,-0.086006 -5.275997,-0.1293079 -7.915194,-0.055446 -2.431094,0.071304 -4.839577,0.4274771 -7.272192,0.4751786 -0.930289,-0.010354 -1.866383,-0.039639 -2.796596,-8.767e-4 -0.35231,0.014681 -0.702125,0.081619 -1.05474,0.081034 -0.119447,-1.984e-4 -0.237402,-0.026666 -0.356103,-0.04 0,0 -5.838049,4.6698877 -5.838049,4.6698877 z" />
  <path
     style="fill:#d70bcc;fill-opacity:0.41129032;stroke-width:0.33;stroke-linejoin:round"
     id="path17835"
     d="m 16.83575,15.18692 c 4.346439,-0.357006 8.709079,-0.48111 13.066052,-0.645618 1.598717,-0.05486 3.197103,-0.120416 4.796151,-0.164579 3.90906,-0.107962 6.788997,-0.152254 10.701226,-0.14304 4.512321,0.01063 9.023507,0.143736 13.535199,0.207128 1.435888,-0.0038 2.871794,-0.01976 4.307663,-0.01151 1.30052,0.0075 2.600693,0.04717 3.901184,0.05865 2.586436,0.02282 5.173053,0.0307 7.759577,0.02249 0.386455,-0.0012 8.195428,-0.07644 8.449314,-0.07887 7.056093,-0.129162 14.107496,0.190017 21.161534,0.2783 2.21226,0.0271 4.42751,0.150212 6.64031,0.139393 1.76578,-0.0086 3.53028,-0.104993 5.296,-0.122467 0.89602,-0.0089 1.79212,0.0032 2.68819,0.0047 0.76966,0.0193 1.53948,0.03298 2.30897,0.05791 1.96769,0.06376 1.62487,0.09606 3.47923,0.109464 1.40575,0.01016 2.8112,-0.03876 4.21697,-0.04166 1.30625,0.01415 0.68769,0.0043 1.85572,0.02776 0,0 5.64682,-4.124965 5.64682,-4.124965 v 0 c -1.31433,0.08726 -0.62211,0.04287 -2.07671,0.13212 -3.57074,0.184129 -7.14505,0.32875 -10.7194,0.416184 -0.90041,0.0016 -1.80087,0.0139 -2.70124,0.0047 -1.65338,-0.01682 -3.30544,-0.114274 -4.95888,-0.122467 -2.34073,-0.0116 -4.68378,0.115167 -7.02403,0.139393 -7.30937,0.08843 -14.616407,0.399179 -21.927622,0.2783 -0.257255,-0.0025 -7.849262,-0.07764 -8.232216,-0.07887 -3.962049,-0.01269 -7.922562,0.05875 -11.884116,0.08114 -1.425305,0.0081 -2.850646,-0.0077 -4.275969,-0.01151 -9.584786,0.129657 -19.17603,0.419728 -28.755946,-0.100491 -3.764475,-0.158624 -7.539061,-0.262383 -11.288819,-0.645618 0,0 -5.965162,4.333944 -5.965162,4.333944 z" />
  <path
     style="fill:#fd735c;fill-opacity:0.42741939;stroke-width:0.33;stroke-linejoin:round"
     id="path17837"
     d="m 19.794766,16.134987 c 3.21519,-0.297435 6.450703,-0.256834 9.676379,-0.313185 4.565174,-0.123258 9.12957,0.05667 13.69365,0.146028 3.657689,0.102045 7.282466,0.589391 10.904022,1.073404 3.458488,0.444457 6.898777,1.023152 10.364068,1.417675 2.551921,0.290536 4.440523,0.430057 7.036741,0.650474 1.417483,0.100401 2.834347,0.209973 4.252451,0.301203 6.653024,0.428006 2.336332,0.07754 8.646341,0.56231 3.046618,0.234059 6.085569,0.495343 9.136232,0.671801 4.13071,0.09155 8.2607,0.200674 12.38891,0.373441 1.74625,0.09563 3.49642,0.09739 5.24489,0.113983 0.86915,0.01156 0.4491,0.0035 1.26016,0.02333 0,0 5.79846,-4.213825 5.79846,-4.213825 v 0 c -0.86223,0.0216 -0.41891,0.01246 -1.32996,0.02671 -1.86552,0.02415 -3.73229,0.04233 -5.59558,0.141807 -4.35705,0.170095 -8.71785,0.264372 -13.07795,0.150049 -7.511346,-0.04516 -15.043788,-0.0641 -22.495717,-1.149644 -5.518268,-0.81052 -11.048262,-1.559002 -16.518931,-2.656052 -1.773021,-0.35083 -3.549639,-0.709957 -5.352341,-0.877145 -1.042129,-0.09665 -2.575834,-0.135221 -3.608748,-0.167265 -0.686552,-0.0213 -1.37319,-0.03979 -2.059785,-0.05969 -4.543666,-0.03533 -9.086756,-0.08838 -13.628947,-0.203426 -2.937409,-0.05391 -5.890889,0.0078 -8.814256,-0.313185 0,0 -5.920089,4.301197 -5.920089,4.301197 z" />
</svg>
